# xmcd
#
# Track frame offsets: 
#        183
#        13280
#        21925
#        35723
#        49890
#        61468
#        73565
#        86068
#        99588
#        111925
#        119420
#        130245
#        141425
#        153808
#        168260
#        179785
#        196650
#        204365
#
# Disc length: 2887 seconds
#
# Revision: 6
# Processed by: cddbd v1.5.2PL0 Copyright (c) Steve Scherf et al.
# Submitted via: ExactAudioCopy v0.99pb5
#
DISCID=080b4512
DTITLE=Jacques Dutronc - Complètement Dutronc | CD1
DYEAR=1991
DGENRE=Chanson
TTITLE0=Et moi, et moi, et moi
TTITLE1=Mini, mini, mini
TTITLE2=Les gens sont fous, les temps sont flous
TTITLE3=Les playboys
TTITLE4=On nous cache tout, on nous dit rien
TTITLE5=Les cactus
TTITLE6=L'espace d'une fille
TTITLE7=J'aime les filles
TTITLE8=L'idole
TTITLE9=J'ai tout lu, tout vu, tout bu
TTITLE10=La publicité
TTITLE11=Les rois de la réforme
TTITLE12=Le plus difficile
TTITLE13=Hippie hippie hourrah
TTITLE14=L'augmentation
TTITLE15=Le roi de la fête
TTITLE16=Fais pas çi, fais pas ça
TTITLE17=L'opportuniste
EXTD=YEAR: 1991
EXTT0=
EXTT1=
EXTT2=
EXTT3=
EXTT4=
EXTT5=
EXTT6=
EXTT7=
EXTT8=
EXTT9=
EXTT10=
EXTT11=
EXTT12=
EXTT13=
EXTT14=
EXTT15=
EXTT16=
EXTT17=
PLAYORDER=
